<svg width="21" height="20" viewBox="0 0 21 20" fill="none" xmlns="http://www.w3.org/2000/svg">
<path d="M15.1874 0.125C13.3749 0.125 11.6353 0.96875 10.4999 2.30208C9.3645 0.96875 7.62492 0.125 5.81242 0.125C2.60409 0.125 0.083252 2.64583 0.083252 5.85417C0.083252 9.79167 3.62492 13 8.9895 17.875L10.4999 19.2396L12.0103 17.8646C17.3749 13 20.9166 9.79167 20.9166 5.85417C20.9166 2.64583 18.3958 0.125 15.1874 0.125ZM10.6041 16.3229L10.4999 16.4271L10.3958 16.3229C5.43742 11.8333 2.16659 8.86458 2.16659 5.85417C2.16659 3.77083 3.72909 2.20833 5.81242 2.20833C7.41659 2.20833 8.97909 3.23958 9.53117 4.66667H11.4791C12.0208 3.23958 13.5833 2.20833 15.1874 2.20833C17.2708 2.20833 18.8333 3.77083 18.8333 5.85417C18.8333 8.86458 15.5624 11.8333 10.6041 16.3229Z" fill="#DCCA87"/>
</svg>
